<svg width="168" height="127" viewBox="0 0 168 127" fill="none" xmlns="http://www.w3.org/2000/svg">
<path d="M39.509 95.4784C39.8061 95.8896 40.1717 96.2551 40.6059 96.5748C41.04 96.8946 41.5428 97.1687 42.114 97.3743C42.6853 97.5799 43.3251 97.6941 44.0335 97.6941C44.7648 97.6941 45.4046 97.557 45.9987 97.3058C46.57 97.0545 47.0727 96.7119 47.484 96.2779C47.8953 95.8439 48.1924 95.3414 48.4209 94.7703C48.6494 94.1993 48.7408 93.5597 48.7408 92.9202C48.7408 91.9151 48.4895 91.1157 47.9639 90.5218C47.4383 89.9279 46.7985 89.4254 46.0444 89.0371C45.2675 88.6488 44.4448 88.2833 43.5537 87.9407C42.6625 87.6209 41.8398 87.2097 41.0629 86.7072C40.286 86.2047 39.6461 85.588 39.1434 84.8113C38.6179 84.0347 38.3665 83.0069 38.3665 81.7277C38.3665 80.814 38.5264 79.9689 38.8692 79.2151C39.1891 78.4613 39.669 77.7989 40.3088 77.2507C40.9258 76.7025 41.6799 76.2685 42.5711 75.9716C43.4394 75.6747 44.4448 75.5148 45.5417 75.5148C46.5928 75.5148 47.5069 75.6518 48.2838 75.9031C49.0607 76.1543 49.7691 76.5426 50.4318 77.068C50.2261 77.4335 50.0662 77.8446 49.9291 78.2558C49.792 78.6669 49.6549 79.1923 49.5406 79.8319H49.1521C49.0379 79.5349 48.9008 79.1923 48.718 78.8268C48.5352 78.4614 48.2838 78.1416 47.9639 77.8218C47.644 77.5248 47.2784 77.2507 46.8213 77.0452C46.3872 76.8396 45.8616 76.7254 45.2446 76.7254C44.6276 76.7254 44.0564 76.8168 43.5537 77.0223C43.0281 77.2279 42.5939 77.502 42.2054 77.8675C41.817 78.2329 41.5199 78.6669 41.3143 79.1694C41.1086 79.672 40.9943 80.2202 40.9943 80.814C40.9943 81.8419 41.2457 82.6642 41.7713 83.2581C42.2969 83.852 42.9367 84.3545 43.6908 84.7657C44.4677 85.1768 45.2903 85.5423 46.1815 85.8621C47.0727 86.1819 47.8953 86.5702 48.6723 87.027C49.4492 87.4838 50.089 88.0777 50.5917 88.8087C51.1173 89.5396 51.3687 90.4989 51.3687 91.7096C51.3687 92.7146 51.1859 93.6739 50.8202 94.5648C50.4546 95.4556 49.9291 96.2551 49.2435 96.9175C48.558 97.5799 47.7125 98.1052 46.7071 98.4707C45.7016 98.8362 44.5819 99.0189 43.3023 99.0189C41.9312 99.0189 40.8344 98.8362 39.9889 98.4707C39.1434 98.1052 38.435 97.6941 37.8638 97.2373C38.0694 96.7347 38.2065 96.2779 38.2751 95.8667C38.3436 95.4556 38.4122 94.9302 38.4807 94.3135H38.8692C38.9835 94.679 39.212 95.0673 39.509 95.4784Z" fill="#C3C6C8"/>
<path d="M55.9162 80.2201C55.8705 78.8268 55.802 77.4106 55.7334 75.9487C56.0076 75.9944 56.2818 76.0401 56.556 76.0629C56.8302 76.0858 57.0816 76.1086 57.3558 76.1086C57.63 76.1086 57.8814 76.0858 58.1556 76.0629C58.4298 76.0401 58.704 75.9944 58.9782 75.9487C58.9097 77.3878 58.8411 78.8268 58.7954 80.2201C58.7497 81.6135 58.704 83.0297 58.704 84.4915V90.1563C58.704 91.5953 58.7269 93.0343 58.7954 94.4277C58.8411 95.821 58.9097 97.2144 58.9782 98.5849C58.4755 98.5392 57.9271 98.5164 57.3558 98.5164C56.7845 98.5164 56.2361 98.5392 55.7334 98.5849C55.802 97.2144 55.8705 95.8439 55.9162 94.4277C55.9619 93.0343 56.0076 91.5953 56.0076 90.1563V84.4915C55.9848 83.0297 55.9619 81.6135 55.9162 80.2201Z" fill="#C3C6C8"/>
<path d="M65.0567 80.2202C65.011 78.8268 64.9425 77.4106 64.8739 75.9487C65.6966 75.9944 66.542 76.0401 67.3647 76.063C68.1873 76.0858 69.0099 76.1086 69.8554 76.1086C70.7009 76.1086 71.5235 76.0858 72.3462 76.0173C73.1688 75.9716 73.9914 75.9259 74.8369 75.9259C76.7793 75.9259 78.4245 76.1772 79.7956 76.6797C81.1666 77.1822 82.2863 77.9131 83.1775 78.8268C84.0458 79.7633 84.7085 80.9054 85.097 82.2531C85.5083 83.6007 85.714 85.1311 85.714 86.8214C85.714 89.0142 85.3255 90.8644 84.5714 92.3719C83.8173 93.8795 82.8576 95.0901 81.6693 96.0038C80.5039 96.9174 79.2014 97.5799 77.7847 97.9682C76.3679 98.3565 75.0197 98.5392 73.7172 98.5392C72.9632 98.5392 72.2319 98.5392 71.5007 98.5164C70.7695 98.4935 70.0382 98.4935 69.2842 98.4935H67.0676C66.3364 98.4935 65.6052 98.5164 64.8511 98.562C64.9196 97.1915 64.9882 95.821 65.0339 94.4049C65.0796 93.0115 65.1253 91.5725 65.1253 90.1335V84.4687C65.1481 83.0297 65.1253 81.6135 65.0567 80.2202ZM68.0502 97.123C68.5072 97.2372 69.147 97.3058 69.924 97.3743C70.7238 97.42 71.5235 97.4656 72.369 97.4656C73.5801 97.4656 74.7912 97.3286 76.0023 97.0317C77.2134 96.7576 78.2874 96.2094 79.2471 95.4099C80.2069 94.6104 80.9838 93.5369 81.5779 92.1664C82.1721 90.7959 82.492 89.0142 82.492 86.8442C82.492 84.9255 82.2635 83.3723 81.7836 82.1389C81.3037 80.9054 80.6639 79.946 79.8413 79.2151C79.0186 78.507 78.0361 78.0045 76.8935 77.7304C75.751 77.4563 74.4942 77.3192 73.146 77.3192C72.1634 77.3192 71.2265 77.3421 70.381 77.4106C69.5355 77.4791 68.7586 77.5477 68.0731 77.639C68.0045 78.6898 67.9588 79.7862 67.9359 80.9511C67.9131 82.0932 67.8902 83.2809 67.8902 84.4459V90.1106C67.8445 92.509 67.9131 94.8389 68.0502 97.123Z" fill="#C3C6C8"/>
<path d="M107.879 79.4435C107.856 77.7532 107.811 76.5883 107.719 75.9487C107.971 75.9944 108.199 76.0401 108.405 76.0629C108.633 76.0858 108.839 76.1086 109.068 76.1086C109.342 76.1086 109.684 76.0629 110.05 75.9487C109.982 76.7253 109.913 77.639 109.844 78.6897C109.776 79.7633 109.73 80.9054 109.684 82.116C109.639 83.3266 109.593 84.5829 109.547 85.862C109.502 87.1412 109.479 88.3975 109.456 89.6081C109.433 91.07 109.205 92.3948 108.77 93.5597C108.336 94.7246 107.742 95.7068 106.942 96.5291C106.143 97.3514 105.183 97.9453 104.017 98.3793C102.875 98.7905 101.55 98.996 100.041 98.996C96.7509 98.996 94.3515 98.2423 92.8662 96.7575C91.3809 95.2728 90.6269 92.8973 90.6269 89.6766C90.6269 88.6487 90.6497 87.7351 90.7183 86.9356C90.764 86.1361 90.8097 85.3138 90.8097 84.4915C90.8097 82.6414 90.7868 81.0196 90.7411 79.5806C90.6954 78.1644 90.6497 76.9538 90.604 75.9716C90.8782 76.0173 91.1524 76.0629 91.4495 76.0858C91.7466 76.1086 92.0436 76.1315 92.295 76.1315C92.5463 76.1315 92.7748 76.1086 93.0033 76.0858C93.2319 76.0629 93.4604 76.0173 93.7117 75.9716C93.666 76.4512 93.6203 77.0908 93.5746 77.8674C93.5289 78.6441 93.4832 79.5349 93.4375 80.5171C93.3918 81.4993 93.369 82.5728 93.3461 83.7149C93.3233 84.857 93.3233 86.0448 93.3233 87.2782C93.3233 88.032 93.3233 88.8086 93.3461 89.6081C93.369 90.4075 93.4375 91.1842 93.5746 91.9379C93.7117 92.6917 93.9174 93.4227 94.2144 94.1079C94.5115 94.7932 94.9228 95.4099 95.4712 95.9124C96.0197 96.4378 96.7052 96.8261 97.5507 97.123C98.3733 97.42 99.4244 97.557 100.636 97.557C101.847 97.557 102.852 97.3743 103.675 97.0316C104.497 96.689 105.183 96.2093 105.708 95.6383C106.234 95.0673 106.645 94.4048 106.942 93.6739C107.239 92.9201 107.445 92.1435 107.582 91.3441C107.719 90.5218 107.788 89.7223 107.811 88.9C107.834 88.0777 107.834 87.3468 107.834 86.6615C107.925 83.5322 107.902 81.1338 107.879 79.4435Z" fill="#C3C6C8"/>
<path d="M116.357 95.4784C116.654 95.8896 117.019 96.2551 117.454 96.5748C117.888 96.8946 118.39 97.1687 118.962 97.3743C119.533 97.5799 120.173 97.6941 120.881 97.6941C121.612 97.6941 122.252 97.557 122.846 97.3058C123.418 97.0545 123.92 96.7119 124.332 96.2779C124.743 95.8439 125.04 95.3414 125.269 94.7703C125.497 94.1993 125.588 93.5597 125.588 92.9202C125.588 91.9151 125.337 91.1157 124.812 90.5218C124.286 89.9279 123.646 89.4254 122.892 89.0371C122.115 88.6488 121.292 88.2833 120.401 87.9407C119.51 87.6209 118.687 87.2097 117.911 86.7072C117.134 86.2047 116.494 85.588 115.991 84.8113C115.466 84.0347 115.214 83.0069 115.214 81.7277C115.214 80.814 115.374 79.9689 115.717 79.2151C116.037 78.4613 116.517 77.7989 117.156 77.2507C117.773 76.7025 118.528 76.2685 119.419 75.9716C120.287 75.6747 121.292 75.5148 122.389 75.5148C123.44 75.5148 124.355 75.6518 125.131 75.9031C125.908 76.1543 126.617 76.5426 127.279 77.068C127.074 77.4335 126.914 77.8446 126.777 78.2558C126.64 78.6669 126.502 79.1923 126.388 79.8319H126C125.886 79.5349 125.748 79.1923 125.566 78.8268C125.383 78.4614 125.131 78.1416 124.812 77.8218C124.492 77.5248 124.126 77.2507 123.669 77.0452C123.235 76.8396 122.709 76.7254 122.092 76.7254C121.475 76.7254 120.904 76.8168 120.401 77.0223C119.876 77.2279 119.442 77.502 119.053 77.8675C118.665 78.2329 118.368 78.6669 118.162 79.1694C117.956 79.672 117.842 80.2202 117.842 80.814C117.842 81.8419 118.093 82.6642 118.619 83.2581C119.144 83.852 119.784 84.3545 120.538 84.7657C121.315 85.1768 122.138 85.5423 123.029 85.8621C123.92 86.1819 124.743 86.5702 125.52 87.027C126.297 87.4838 126.937 88.0777 127.439 88.8087C127.965 89.5396 128.216 90.4989 128.216 91.7096C128.216 92.7146 128.034 93.6739 127.668 94.5648C127.302 95.4556 126.777 96.2551 126.091 96.9175C125.406 97.5799 124.56 98.1052 123.555 98.4707C122.549 98.8362 121.43 99.0189 120.15 99.0189C118.779 99.0189 117.682 98.8362 116.837 98.4707C115.991 98.1052 115.283 97.6941 114.711 97.2373C114.917 96.7347 115.054 96.2779 115.123 95.8667C115.191 95.4556 115.26 94.9302 115.328 94.3135H115.717C115.831 94.679 116.06 95.0673 116.357 95.4784Z" fill="#C3C6C8"/>
<path d="M0.0914037 111.833C0.0685528 111.057 0.0228509 110.257 0 109.435C0.479869 109.458 0.936888 109.48 1.39391 109.503C1.85093 109.526 2.33079 109.526 2.78781 109.526C3.26768 109.526 3.7247 109.503 4.18172 109.48C4.63874 109.458 5.11861 109.435 5.57563 109.435C6.67247 109.435 7.58651 109.572 8.36344 109.869C9.14037 110.143 9.7802 110.554 10.2601 111.079C10.7628 111.605 11.1055 112.244 11.3341 112.998C11.5626 113.752 11.6768 114.62 11.6768 115.556C11.6768 116.79 11.4712 117.84 11.037 118.686C10.6028 119.531 10.0544 120.216 9.41458 120.741C8.7519 121.267 8.02068 121.632 7.22089 121.838C6.42111 122.043 5.66703 122.158 4.9358 122.158C4.52448 122.158 4.09032 122.158 3.70185 122.135C3.29053 122.112 2.87922 122.112 2.4679 122.112H1.23395C0.822633 122.112 0.411317 122.135 0 122.158C0.0457019 121.381 0.0685528 120.604 0.0914037 119.828C0.114255 119.028 0.137106 118.229 0.137106 117.407V114.209C0.137106 113.432 0.137106 112.633 0.0914037 111.833ZM1.78237 121.358C2.03373 121.427 2.39935 121.472 2.83351 121.495C3.29053 121.518 3.74755 121.541 4.20457 121.541C4.8901 121.541 5.57563 121.449 6.2383 121.29C6.92383 121.13 7.51795 120.833 8.06638 120.376C8.6148 119.942 9.04897 119.325 9.39173 118.549C9.73449 117.772 9.89445 116.767 9.89445 115.556C9.89445 114.483 9.75735 113.592 9.50598 112.907C9.23177 112.221 8.86616 111.673 8.40914 111.262C7.95212 110.851 7.38085 110.577 6.74102 110.417C6.1012 110.257 5.39282 110.189 4.61589 110.189C4.06747 110.189 3.54189 110.211 3.06202 110.234C2.58215 110.28 2.14799 110.326 1.75952 110.371C1.71382 110.965 1.69097 111.582 1.66812 112.244C1.64527 112.884 1.64527 113.546 1.64527 114.209V117.407C1.66812 118.777 1.71382 120.079 1.78237 121.358Z" fill="#C3C6C8"/>
<path d="M14.5328 111.81C14.51 111.011 14.4643 110.234 14.4414 109.435C14.9898 109.458 15.5611 109.48 16.1095 109.503C16.6579 109.526 17.2064 109.526 17.7776 109.526C18.3261 109.526 18.8745 109.526 19.4229 109.503C19.9713 109.48 20.5198 109.458 21.0682 109.435C21.0225 109.617 21.0225 109.8 21.0225 109.983C21.0225 110.166 21.0453 110.348 21.0682 110.531C20.6797 110.508 20.3141 110.485 19.9713 110.463C19.6514 110.44 19.3087 110.417 18.943 110.394C18.5774 110.371 18.189 110.348 17.7548 110.326C17.3206 110.303 16.7951 110.303 16.2009 110.303C16.1781 110.691 16.1781 111.079 16.1552 111.445C16.1324 111.81 16.1324 112.221 16.1324 112.678C16.1324 113.158 16.1324 113.638 16.1324 114.094C16.1324 114.551 16.1324 114.894 16.1324 115.122C16.6808 115.122 17.1607 115.122 17.5948 115.099C18.029 115.077 18.4175 115.077 18.7831 115.054C19.1487 115.031 19.4686 115.008 19.7657 115.008C20.0627 114.985 20.3598 114.962 20.634 114.94C20.5883 115.122 20.5883 115.328 20.5883 115.511C20.5883 115.693 20.6112 115.876 20.634 116.059C20.3141 116.013 19.9485 115.99 19.5143 115.967C19.0801 115.945 18.6688 115.922 18.2347 115.922C17.8005 115.922 17.412 115.899 17.0236 115.899C16.6351 115.899 16.338 115.899 16.1324 115.899C16.1324 116.013 16.1324 116.127 16.1324 116.264C16.1324 116.401 16.1324 116.561 16.1324 116.767V117.498V118.617C16.1324 119.325 16.1324 119.896 16.1324 120.353C16.1324 120.81 16.1552 121.153 16.1552 121.381H17.4577C17.9376 121.381 18.3946 121.381 18.8288 121.358C19.2858 121.335 19.6971 121.312 20.1084 121.29C20.5198 121.267 20.8625 121.221 21.1596 121.153C21.1367 121.244 21.1139 121.335 21.1139 121.449C21.1139 121.564 21.1139 121.655 21.1139 121.746C21.1139 121.952 21.1367 122.112 21.1596 122.226C20.6112 122.203 20.0399 122.18 19.4915 122.18H17.8233H16.1324C15.584 122.18 15.0127 122.203 14.4414 122.226C14.4871 121.427 14.51 120.65 14.5328 119.873C14.5557 119.097 14.5785 118.297 14.5785 117.475V114.277C14.5785 113.409 14.5557 112.61 14.5328 111.81Z" fill="#C3C6C8"/>
<path d="M23.8105 111.833C23.7877 111.057 23.742 110.257 23.7191 109.435C24.0848 109.458 24.4275 109.48 24.7703 109.503C25.113 109.526 25.4787 109.526 25.8214 109.526C26.187 109.526 26.5298 109.503 26.8726 109.48C27.2153 109.458 27.5809 109.435 27.9237 109.435C28.4493 109.435 28.9292 109.48 29.409 109.595C29.8889 109.686 30.3002 109.846 30.643 110.097C30.9857 110.326 31.2828 110.623 31.4885 110.988C31.6941 111.353 31.7855 111.833 31.7855 112.381C31.7855 112.975 31.6484 113.478 31.3971 113.912C31.1228 114.346 30.8029 114.688 30.4145 114.962C30.026 115.237 29.6147 115.465 29.1805 115.602C28.7463 115.762 28.335 115.853 27.9923 115.899C28.1294 116.082 28.335 116.333 28.6092 116.676C28.8606 117.018 29.1577 117.384 29.4776 117.772C29.7975 118.183 30.1403 118.594 30.483 119.028C30.8258 119.462 31.1685 119.896 31.4885 120.285C31.8084 120.696 32.1054 121.061 32.4025 121.381C32.6767 121.724 32.9052 121.975 33.088 122.135C32.9052 122.112 32.7224 122.089 32.5396 122.089H31.9912H31.4428C31.26 122.089 31.0771 122.112 30.8943 122.135C30.7115 121.884 30.4373 121.495 30.0489 120.97C29.6604 120.444 29.2491 119.896 28.792 119.302C28.335 118.709 27.878 118.115 27.3981 117.521C26.9183 116.927 26.4841 116.424 26.0956 116.036H25.3873V117.384C25.3873 118.206 25.4101 119.005 25.433 119.805C25.4558 120.604 25.5015 121.381 25.5244 122.135C25.2502 122.112 24.9302 122.089 24.6103 122.089C24.2904 122.089 23.9934 122.112 23.6963 122.135C23.742 121.358 23.7648 120.582 23.7877 119.805C23.8105 119.005 23.8334 118.206 23.8334 117.384V114.186C23.8562 113.432 23.8334 112.633 23.8105 111.833ZM25.9357 115.374C26.1413 115.396 26.3698 115.396 26.6212 115.396C27.0097 115.396 27.3981 115.351 27.8095 115.259C28.2208 115.168 28.6092 115.031 28.952 114.803C29.2948 114.597 29.5918 114.3 29.8203 113.935C30.0489 113.569 30.1631 113.112 30.1631 112.564C30.1631 112.084 30.0717 111.673 29.8889 111.376C29.7061 111.057 29.4776 110.805 29.2034 110.623C28.9292 110.44 28.6092 110.303 28.2665 110.234C27.9237 110.166 27.6038 110.143 27.2839 110.143C26.8497 110.143 26.4841 110.143 26.2099 110.166C25.9357 110.189 25.6843 110.211 25.4787 110.234C25.4558 110.919 25.433 111.582 25.4101 112.267C25.3873 112.93 25.3644 113.592 25.3644 114.277V115.328C25.5472 115.328 25.7529 115.351 25.9357 115.374Z" fill="#C3C6C8"/>
<path d="M38.9608 114.323C39.8291 115.99 40.7432 117.681 41.7029 119.417C41.8172 119.188 42 118.846 42.2513 118.412C42.4798 117.978 42.7541 117.475 43.074 116.904C43.3939 116.333 43.7138 115.716 44.0566 115.054C44.3993 114.391 44.7649 113.729 45.1306 113.044C45.4962 112.358 45.8618 111.696 46.2274 111.034C46.593 110.371 46.9129 109.777 47.2328 109.206H47.4842C47.6213 110.394 47.7356 111.536 47.8727 112.655C47.9869 113.752 48.1012 114.848 48.2383 115.922C48.3525 116.995 48.4896 118.046 48.6039 119.097C48.7182 120.148 48.8553 121.175 49.0152 122.203C48.8553 122.18 48.7182 122.158 48.5811 122.158H48.1469H47.7127C47.5756 122.158 47.4157 122.18 47.2785 122.203C47.1414 120.559 47.0043 118.96 46.8672 117.429C46.7301 115.876 46.5702 114.3 46.3645 112.701H46.3188C45.4733 114.254 44.6278 115.808 43.8052 117.338C42.9826 118.868 42.2056 120.49 41.4516 122.18H41.2916C40.5604 120.627 39.7834 119.051 38.9608 117.498C38.161 115.945 37.3384 114.346 36.5158 112.701H36.4701C36.3787 113.478 36.2872 114.3 36.173 115.191C36.0587 116.082 35.9673 116.973 35.8759 117.841C35.7845 118.709 35.716 119.531 35.6474 120.307C35.5789 121.084 35.556 121.724 35.556 122.203C35.3504 122.18 35.1447 122.158 34.9162 122.158C34.6877 122.158 34.4592 122.18 34.2764 122.203C34.4363 121.198 34.5963 120.148 34.7791 119.028C34.9619 117.909 35.1219 116.79 35.2818 115.671C35.4418 114.551 35.6017 113.432 35.716 112.336C35.8531 111.239 35.9673 110.188 36.0587 109.206H36.3787C37.2241 110.942 38.0925 112.655 38.9608 114.323Z" fill="#C3C6C8"/>
<path d="M51.1629 113.021C51.5056 112.199 51.9855 111.513 52.6025 110.942C53.2195 110.371 53.9507 109.937 54.7962 109.64C55.6417 109.343 56.5785 109.206 57.6068 109.206C58.6351 109.206 59.572 109.366 60.4175 109.64C61.263 109.937 61.9942 110.371 62.6112 110.942C63.2282 111.513 63.708 112.199 64.0508 113.021C64.3935 113.843 64.5535 114.78 64.5535 115.83C64.5535 116.881 64.3935 117.818 64.0508 118.64C63.708 119.462 63.2282 120.148 62.6112 120.719C61.9942 121.29 61.263 121.701 60.4175 121.998C59.572 122.272 58.6123 122.409 57.6068 122.409C56.6014 122.409 55.6645 122.272 54.7962 121.998C53.9507 121.724 53.2195 121.29 52.6025 120.719C51.9855 120.148 51.5056 119.462 51.1629 118.64C50.8201 117.818 50.6602 116.881 50.6602 115.83C50.6602 114.78 50.8201 113.843 51.1629 113.021ZM62.337 113.181C62.0856 112.427 61.72 111.81 61.263 111.331C60.806 110.851 60.2575 110.485 59.6406 110.257C59.0236 110.029 58.3381 109.914 57.6068 109.914C56.8985 109.914 56.2129 110.029 55.596 110.257C54.979 110.485 54.4306 110.851 53.9735 111.331C53.5165 111.81 53.1509 112.427 52.8995 113.181C52.6482 113.935 52.5111 114.825 52.5111 115.853C52.5111 116.881 52.6482 117.772 52.8995 118.526C53.1509 119.28 53.5165 119.896 53.9735 120.376C54.4306 120.856 54.979 121.221 55.596 121.45C56.2129 121.678 56.8985 121.792 57.6068 121.792C58.3381 121.792 59.0236 121.678 59.6406 121.45C60.2575 121.221 60.806 120.856 61.263 120.376C61.72 119.896 62.0856 119.28 62.337 118.526C62.5883 117.772 62.7254 116.881 62.7254 115.853C62.7254 114.803 62.5883 113.935 62.337 113.181Z" fill="#C3C6C8"/>
<path d="M76.2079 121.746C75.9566 121.861 75.6823 121.975 75.3396 122.066C74.9968 122.158 74.6084 122.249 74.197 122.318C73.7857 122.386 73.3287 122.432 72.8717 122.432C71.8891 122.432 70.9979 122.295 70.1524 122.021C69.3298 121.746 68.5986 121.312 68.0044 120.741C67.4103 120.17 66.9304 119.485 66.5877 118.663C66.2449 117.841 66.085 116.904 66.085 115.853C66.085 114.803 66.2449 113.866 66.5877 113.044C66.9304 112.221 67.4103 111.536 68.0273 110.965C68.6443 110.394 69.3755 109.96 70.221 109.663C71.0665 109.366 72.0033 109.229 73.0316 109.229C73.8543 109.229 74.5855 109.321 75.271 109.48C75.9337 109.64 76.5507 109.846 77.0534 110.074C76.962 110.257 76.8706 110.485 76.802 110.782C76.7335 111.079 76.6878 111.331 76.6421 111.513L76.5278 111.559C76.4136 111.399 76.2308 111.239 76.0023 111.057C75.7738 110.874 75.5224 110.691 75.2253 110.508C74.9283 110.326 74.5855 110.189 74.2199 110.074C73.8543 109.96 73.443 109.892 72.9859 109.892C72.2547 109.892 71.5692 110.006 70.9522 110.234C70.3352 110.463 69.7868 110.828 69.3298 111.331C68.8728 111.81 68.5072 112.427 68.2558 113.181C68.0044 113.935 67.8673 114.825 67.8673 115.853C67.8673 116.881 68.0044 117.772 68.2558 118.526C68.5072 119.28 68.8728 119.896 69.3298 120.376C69.7868 120.856 70.3352 121.221 70.9522 121.45C71.5692 121.678 72.2547 121.792 72.9859 121.792C73.4201 121.792 73.8314 121.746 74.2199 121.632C74.5855 121.518 74.9511 121.381 75.2482 121.244C75.5681 121.084 75.8423 120.924 76.0937 120.741C76.345 120.559 76.5507 120.399 76.7335 120.262L76.802 120.33L76.6421 121.427C76.6192 121.518 76.4364 121.632 76.2079 121.746Z" fill="#C3C6C8"/>
<path d="M78.9958 113.021C79.3386 112.199 79.8185 111.513 80.4354 110.942C81.0524 110.371 81.7837 109.937 82.6291 109.64C83.4746 109.343 84.4115 109.206 85.4398 109.206C86.4681 109.206 87.405 109.366 88.2505 109.64C89.0959 109.937 89.8272 110.371 90.4441 110.942C91.0611 111.513 91.541 112.199 91.8837 113.021C92.2265 113.843 92.3865 114.78 92.3865 115.83C92.3865 116.881 92.2265 117.818 91.8837 118.64C91.541 119.462 91.0611 120.148 90.4441 120.719C89.8272 121.29 89.0959 121.701 88.2505 121.998C87.405 122.272 86.4452 122.409 85.4398 122.409C84.4344 122.409 83.4975 122.272 82.6291 121.998C81.7837 121.724 81.0524 121.29 80.4354 120.719C79.8185 120.148 79.3386 119.462 78.9958 118.64C78.6531 117.818 78.4931 116.881 78.4931 115.83C78.4703 114.78 78.6531 113.843 78.9958 113.021ZM90.1699 113.181C89.9186 112.427 89.553 111.81 89.0959 111.331C88.6389 110.851 88.0905 110.485 87.4735 110.257C86.8565 110.029 86.171 109.914 85.4398 109.914C84.7314 109.914 84.0459 110.029 83.4289 110.257C82.8119 110.485 82.2635 110.851 81.8065 111.331C81.3495 111.81 80.9839 112.427 80.7325 113.181C80.4811 113.935 80.344 114.825 80.344 115.853C80.344 116.881 80.4811 117.772 80.7325 118.526C80.9839 119.28 81.3495 119.896 81.8065 120.376C82.2635 120.856 82.8119 121.221 83.4289 121.45C84.0459 121.678 84.7314 121.792 85.4398 121.792C86.171 121.792 86.8565 121.678 87.4735 121.45C88.0905 121.221 88.6389 120.856 89.0959 120.376C89.553 119.896 89.9186 119.28 90.1699 118.526C90.4213 117.772 90.5584 116.881 90.5584 115.853C90.5584 114.803 90.4213 113.935 90.1699 113.181Z" fill="#C3C6C8"/>
<path d="M94.9682 120.444C95.1282 120.673 95.3338 120.878 95.5852 121.061C95.8366 121.244 96.1108 121.404 96.4307 121.518C96.7506 121.632 97.1162 121.701 97.5047 121.701C97.916 121.701 98.2816 121.632 98.6015 121.495C98.9214 121.358 99.2185 121.153 99.447 120.924C99.6755 120.673 99.8583 120.399 99.9726 120.079C100.087 119.759 100.155 119.394 100.155 119.028C100.155 118.457 100.018 118 99.7212 117.681C99.4242 117.338 99.0586 117.064 98.6472 116.835C98.2131 116.607 97.756 116.401 97.2533 116.219C96.7506 116.036 96.2936 115.808 95.8594 115.534C95.4253 115.259 95.0596 114.894 94.7626 114.46C94.4655 114.026 94.3284 113.455 94.3284 112.724C94.3284 112.199 94.4198 111.742 94.6026 111.308C94.7854 110.874 95.0596 110.508 95.4024 110.211C95.7452 109.892 96.1793 109.663 96.6821 109.48C97.1848 109.298 97.7332 109.229 98.3502 109.229C98.9443 109.229 99.447 109.298 99.8812 109.435C100.315 109.572 100.727 109.8 101.092 110.097C100.978 110.303 100.887 110.531 100.818 110.76C100.75 110.988 100.658 111.285 100.59 111.65H100.361C100.293 111.468 100.224 111.285 100.11 111.079C99.9954 110.874 99.8583 110.691 99.6755 110.508C99.4927 110.326 99.2871 110.189 99.0357 110.074C98.7843 109.96 98.4873 109.892 98.1445 109.892C97.8017 109.892 97.4818 109.937 97.1848 110.051C96.8877 110.166 96.6364 110.326 96.4307 110.531C96.225 110.737 96.0422 110.988 95.928 111.262C95.8137 111.536 95.7452 111.856 95.7452 112.199C95.7452 112.77 95.8823 113.226 96.1793 113.569C96.4764 113.912 96.842 114.186 97.2533 114.414C97.6875 114.643 98.1445 114.848 98.6472 115.031C99.15 115.214 99.607 115.419 100.041 115.693C100.475 115.945 100.841 116.287 101.115 116.698C101.412 117.11 101.549 117.658 101.549 118.32C101.549 118.891 101.458 119.417 101.252 119.942C101.047 120.444 100.75 120.901 100.361 121.267C99.9726 121.655 99.4927 121.929 98.9214 122.135C98.3502 122.34 97.7103 122.432 97.002 122.432C96.225 122.432 95.6081 122.34 95.1282 122.135C94.6483 121.929 94.2599 121.701 93.9399 121.45C94.0542 121.175 94.1227 120.901 94.1685 120.673C94.2142 120.444 94.2599 120.148 94.2827 119.782H94.5112C94.6712 119.988 94.7854 120.216 94.9682 120.444Z" fill="#C3C6C8"/>
<path d="M108.016 114.323C108.884 115.99 109.798 117.681 110.758 119.417C110.872 119.188 111.055 118.846 111.307 118.412C111.535 117.978 111.809 117.475 112.129 116.904C112.449 116.333 112.769 115.716 113.112 115.054C113.454 114.391 113.82 113.729 114.186 113.044C114.551 112.358 114.917 111.696 115.283 111.034C115.648 110.371 115.968 109.777 116.288 109.206H116.539C116.676 110.394 116.791 111.536 116.928 112.655C117.042 113.752 117.156 114.848 117.293 115.922C117.408 116.995 117.545 118.046 117.659 119.097C117.773 120.148 117.91 121.175 118.07 122.203C117.91 122.18 117.773 122.158 117.636 122.158H117.202H116.768C116.631 122.158 116.471 122.18 116.334 122.203C116.197 120.559 116.06 118.96 115.922 117.429C115.785 115.876 115.625 114.3 115.42 112.701H115.374C114.528 114.254 113.683 115.808 112.86 117.338C112.038 118.868 111.261 120.49 110.507 122.18H110.347C109.616 120.627 108.839 119.051 108.016 117.498C107.216 115.945 106.394 114.346 105.571 112.701H105.525C105.434 113.478 105.342 114.3 105.228 115.191C105.114 116.082 105.023 116.973 104.931 117.841C104.84 118.709 104.771 119.531 104.703 120.307C104.634 121.084 104.611 121.724 104.611 122.203C104.406 122.18 104.2 122.158 103.971 122.158C103.743 122.158 103.514 122.18 103.332 122.203C103.491 121.198 103.651 120.148 103.834 119.028C104.017 117.909 104.177 116.79 104.337 115.671C104.497 114.551 104.657 113.432 104.771 112.336C104.908 111.239 105.023 110.188 105.114 109.206H105.434C106.279 110.942 107.148 112.655 108.016 114.323Z" fill="#C3C6C8"/>
<path d="M120.699 111.81C120.676 111.011 120.63 110.234 120.607 109.435C121.156 109.458 121.727 109.48 122.276 109.503C122.824 109.526 123.372 109.526 123.944 109.526C124.492 109.526 125.04 109.526 125.589 109.503C126.137 109.48 126.686 109.458 127.234 109.435C127.188 109.617 127.188 109.8 127.188 109.983C127.188 110.166 127.211 110.348 127.234 110.531C126.846 110.508 126.48 110.485 126.16 110.463C125.84 110.44 125.498 110.417 125.132 110.394C124.766 110.371 124.378 110.348 123.944 110.326C123.509 110.303 122.984 110.303 122.39 110.303C122.367 110.691 122.367 111.079 122.344 111.445C122.321 111.81 122.321 112.221 122.321 112.678C122.321 113.158 122.321 113.638 122.321 114.094C122.321 114.551 122.321 114.894 122.321 115.122C122.87 115.122 123.35 115.122 123.784 115.099C124.218 115.077 124.606 115.077 124.972 115.054C125.338 115.031 125.657 115.008 125.955 115.008C126.252 114.985 126.549 114.962 126.823 114.94C126.777 115.122 126.777 115.328 126.777 115.511C126.777 115.693 126.8 115.876 126.823 116.059C126.503 116.013 126.137 115.99 125.703 115.967C125.269 115.945 124.858 115.922 124.424 115.922C123.989 115.922 123.601 115.899 123.212 115.899C122.824 115.899 122.527 115.899 122.321 115.899C122.321 116.013 122.321 116.127 122.321 116.264C122.321 116.401 122.321 116.561 122.321 116.767V117.498V118.617C122.321 119.325 122.321 119.896 122.321 120.353C122.321 120.81 122.344 121.153 122.344 121.381H123.647C124.126 121.381 124.583 121.381 125.018 121.358C125.475 121.335 125.886 121.312 126.297 121.29C126.709 121.267 127.051 121.221 127.348 121.153C127.326 121.244 127.303 121.335 127.303 121.449C127.303 121.564 127.303 121.655 127.303 121.746C127.303 121.952 127.326 122.112 127.348 122.226C126.8 122.203 126.229 122.18 125.68 122.18H124.012H122.321C121.773 122.18 121.202 122.203 120.63 122.226C120.676 121.427 120.699 120.65 120.722 119.873C120.745 119.097 120.767 118.297 120.767 117.475V114.277C120.745 113.409 120.722 112.61 120.699 111.81ZM126.16 105.369C126.274 105.369 126.412 105.415 126.549 105.529C126.686 105.62 126.754 105.78 126.754 105.963C126.754 106.191 126.686 106.351 126.526 106.488C126.366 106.625 126.229 106.739 126.069 106.831L123.35 108.567H122.573L125.292 105.803C125.612 105.529 125.909 105.369 126.16 105.369Z" fill="#C3C6C8"/>
<path d="M132.535 110.394C132.215 110.394 131.872 110.394 131.53 110.394C131.187 110.394 130.821 110.417 130.479 110.44C130.136 110.463 129.793 110.485 129.45 110.508C129.13 110.531 128.833 110.554 128.559 110.6C128.628 110.371 128.65 110.189 128.65 110.006C128.65 109.869 128.628 109.686 128.559 109.435C129.382 109.458 130.182 109.48 130.958 109.503C131.735 109.526 132.535 109.526 133.358 109.526C134.18 109.526 134.98 109.526 135.757 109.503C136.534 109.48 137.334 109.458 138.156 109.435C138.088 109.686 138.065 109.869 138.065 110.029C138.065 110.189 138.088 110.371 138.156 110.6C137.905 110.554 137.608 110.531 137.265 110.508C136.945 110.485 136.603 110.463 136.237 110.44C135.894 110.417 135.529 110.417 135.186 110.394C134.843 110.394 134.5 110.394 134.18 110.394C134.135 111.673 134.135 112.952 134.135 114.232V117.429C134.135 118.252 134.158 119.051 134.18 119.851C134.203 120.65 134.249 121.427 134.272 122.18C133.998 122.158 133.678 122.135 133.358 122.135C133.038 122.135 132.741 122.158 132.444 122.18C132.489 121.404 132.512 120.627 132.535 119.851C132.558 119.051 132.581 118.252 132.581 117.429V114.232C132.604 112.952 132.581 111.673 132.535 110.394Z" fill="#C3C6C8"/>
<path d="M140.282 111.833C140.259 111.057 140.214 110.257 140.191 109.435C140.351 109.458 140.511 109.48 140.648 109.503C140.785 109.526 140.945 109.526 141.082 109.526C141.242 109.526 141.379 109.526 141.516 109.503C141.676 109.48 141.813 109.458 141.973 109.435C141.927 110.257 141.905 111.057 141.882 111.833C141.859 112.61 141.836 113.409 141.836 114.232V117.429C141.836 118.252 141.859 119.051 141.882 119.851C141.905 120.65 141.95 121.427 141.973 122.18C141.699 122.158 141.379 122.135 141.059 122.135C140.739 122.135 140.442 122.158 140.145 122.18C140.191 121.404 140.214 120.627 140.236 119.851C140.259 119.051 140.282 118.252 140.282 117.429V114.232C140.328 113.432 140.328 112.633 140.282 111.833Z" fill="#C3C6C8"/>
<path d="M154.563 121.746C154.312 121.861 154.038 121.975 153.695 122.066C153.352 122.158 152.964 122.249 152.553 122.318C152.141 122.386 151.684 122.432 151.227 122.432C150.245 122.432 149.353 122.295 148.508 122.021C147.685 121.746 146.954 121.312 146.36 120.741C145.766 120.17 145.286 119.485 144.943 118.663C144.6 117.841 144.44 116.904 144.44 115.853C144.44 114.803 144.6 113.866 144.943 113.044C145.286 112.221 145.766 111.536 146.383 110.965C147 110.394 147.731 109.96 148.576 109.663C149.422 109.366 150.359 109.229 151.387 109.229C152.21 109.229 152.941 109.321 153.627 109.48C154.312 109.64 154.906 109.846 155.409 110.074C155.317 110.257 155.226 110.485 155.158 110.782C155.089 111.079 155.043 111.331 154.998 111.513L154.883 111.559C154.769 111.399 154.586 111.239 154.358 111.057C154.129 110.874 153.878 110.691 153.581 110.508C153.284 110.326 152.941 110.189 152.575 110.074C152.21 109.96 151.798 109.892 151.341 109.892C150.61 109.892 149.925 110.006 149.308 110.234C148.691 110.463 148.142 110.828 147.685 111.331C147.228 111.81 146.863 112.427 146.611 113.181C146.36 113.935 146.223 114.825 146.223 115.853C146.223 116.881 146.36 117.772 146.611 118.526C146.863 119.28 147.228 119.896 147.685 120.376C148.142 120.856 148.691 121.221 149.308 121.45C149.925 121.678 150.61 121.792 151.341 121.792C151.776 121.792 152.187 121.746 152.575 121.632C152.964 121.518 153.307 121.381 153.604 121.244C153.924 121.084 154.198 120.924 154.449 120.741C154.701 120.559 154.906 120.399 155.089 120.262L155.158 120.33L154.998 121.427C154.975 121.518 154.792 121.632 154.563 121.746Z" fill="#C3C6C8"/>
<path d="M167.268 122.18C167.086 122.158 166.926 122.135 166.766 122.135H166.263H165.76C165.6 122.135 165.44 122.158 165.258 122.18C165.166 121.906 165.052 121.564 164.915 121.153C164.778 120.741 164.595 120.33 164.412 119.896C164.229 119.462 164.046 119.005 163.864 118.571C163.681 118.115 163.498 117.681 163.338 117.292C162.95 117.269 162.538 117.269 162.127 117.269C161.716 117.269 161.304 117.269 160.893 117.269C160.505 117.269 160.139 117.269 159.75 117.269C159.385 117.269 158.996 117.292 158.608 117.292C158.219 118.252 157.854 119.165 157.534 120.056C157.214 120.924 156.963 121.655 156.803 122.226C156.597 122.203 156.369 122.18 156.117 122.18C155.866 122.18 155.637 122.203 155.432 122.226C156.437 120.056 157.42 117.909 158.357 115.762C159.316 113.615 160.276 111.445 161.236 109.229H161.579C161.876 109.937 162.196 110.714 162.538 111.559C162.881 112.404 163.247 113.226 163.589 114.094C163.955 114.94 164.298 115.785 164.663 116.63C165.029 117.475 165.349 118.252 165.669 118.983C165.989 119.714 166.263 120.353 166.514 120.924C166.903 121.45 167.108 121.884 167.268 122.18ZM159.065 116.401C159.385 116.401 159.728 116.401 160.07 116.424C160.413 116.447 160.756 116.447 161.076 116.447C161.419 116.447 161.761 116.447 162.104 116.447C162.447 116.447 162.79 116.424 163.132 116.424L161.076 111.719L159.065 116.401Z" fill="#C3C6C8"/>
<path d="M168 126.109H0.319824V127H168V126.109Z" fill="#F8C2CB"/>
<path d="M33.4995 65.4873L89.3929 29.9912C89.3929 29.9912 101.184 21.0601 113.226 25.5142C125.269 29.9912 127.874 42.7826 125.909 50.1605C123.943 57.5383 116.905 65.4644 103.263 65.4644C89.6214 65.4644 33.4995 65.4873 33.4995 65.4873ZM103.583 60.5535C111.147 60.5535 116.631 57.2186 119.305 53.1756C121.978 49.1326 124.012 38.2828 114.597 31.7272C105.183 25.1716 93.209 33.3946 93.209 33.3946L50.3178 60.5535C50.3178 60.5535 96.0196 60.5535 103.583 60.5535Z" fill="#F8C2CB"/>
<path d="M131.85 0L75.9792 35.496C75.9792 35.496 64.1881 44.4272 52.1456 39.973C40.1032 35.496 37.4753 22.6818 39.4405 15.304C41.4057 7.92608 48.4438 0 62.0858 0C75.7278 0 131.85 0 131.85 0ZM61.7887 4.93381C54.2251 4.93381 48.7409 8.26871 46.0673 12.3117C43.3937 16.3547 41.36 27.2045 50.7746 33.7601C60.1892 40.3156 72.163 32.0926 72.163 32.0926L115.054 4.93381C115.054 4.93381 69.3524 4.93381 61.7887 4.93381Z" fill="#F8C2CB"/>
</svg>
